<?xml version="1.0" encoding="UTF-8"?>
<svg xmlns="http://www.w3.org/2000/svg" xmlns:xlink="http://www.w3.org/1999/xlink" width="100px" height="166px" viewBox="0 0 100 166" version="1.1">
<defs>
<filter id="alpha" filterUnits="objectBoundingBox" x="0%" y="0%" width="100%" height="100%">
  <feColorMatrix type="matrix" in="SourceGraphic" values="0 0 0 0 1 0 0 0 0 1 0 0 0 0 1 0 0 0 1 0"/>
</filter>
<mask id="mask0">
  <g filter="url(#alpha)">
<rect x="0" y="0" width="100" height="166" style="fill:rgb(0%,0%,0%);fill-opacity:0.996078;stroke:none;"/>
  </g>
</mask>
<clipPath id="clip1">
  <rect x="0" y="0" width="100" height="166"/>
</clipPath>
<g id="surface5" clip-path="url(#clip1)">
<path style=" stroke:none;fill-rule:evenodd;fill:rgb(99.607843%,9.019608%,10.980392%);fill-opacity:1;" d="M 85.789062 -0.0117188 C 85.804688 -0.0117188 85.816406 -0.0117188 85.828125 -0.0117188 C 78.886719 6.386719 72.238281 13.074219 65.878906 20.046875 C 62.445312 23.824219 59.144531 27.703125 55.980469 31.691406 C 54.359375 33.757812 52.789062 35.863281 51.269531 38.003906 C 47.875 36.050781 44.480469 34.09375 41.089844 32.132812 C 47.324219 27.640625 53.554688 23.148438 59.789062 18.65625 C 68.460938 12.4375 77.128906 6.214844 85.789062 -0.0117188 Z M 85.789062 -0.0117188 "/>
</g>
<mask id="mask1">
  <g filter="url(#alpha)">
<rect x="0" y="0" width="100" height="166" style="fill:rgb(0%,0%,0%);fill-opacity:0.996078;stroke:none;"/>
  </g>
</mask>
<clipPath id="clip2">
  <rect x="0" y="0" width="100" height="166"/>
</clipPath>
<g id="surface8" clip-path="url(#clip2)">
<path style=" stroke:none;fill-rule:evenodd;fill:rgb(96.470588%,8.235294%,10.196078%);fill-opacity:1;" d="M 41.089844 32.132812 C 44.480469 34.09375 47.875 36.050781 51.269531 38.003906 C 50.628906 38.925781 49.996094 39.851562 49.371094 40.78125 C 45.625 38.617188 41.878906 36.453125 38.128906 34.289062 C 39.109375 33.5625 40.097656 32.84375 41.089844 32.132812 Z M 41.089844 32.132812 "/>
</g>
<mask id="mask2">
  <g filter="url(#alpha)">
<rect x="0" y="0" width="100" height="166" style="fill:rgb(0%,0%,0%);fill-opacity:0.996078;stroke:none;"/>
  </g>
</mask>
<clipPath id="clip3">
  <rect x="0" y="0" width="100" height="166"/>
</clipPath>
<g id="surface11" clip-path="url(#clip3)">
<path style=" stroke:none;fill-rule:evenodd;fill:rgb(94.901961%,7.843137%,9.803922%);fill-opacity:1;" d="M 38.128906 34.289062 C 41.878906 36.453125 45.625 38.617188 49.371094 40.78125 C 49.203125 41.035156 49.035156 41.289062 48.871094 41.539062 C 45.019531 39.320312 41.171875 37.097656 37.328125 34.867188 C 37.589844 34.664062 37.855469 34.472656 38.128906 34.289062 Z M 38.128906 34.289062 "/>
</g>
<mask id="mask3">
  <g filter="url(#alpha)">
<rect x="0" y="0" width="100" height="166" style="fill:rgb(0%,0%,0%);fill-opacity:0.996078;stroke:none;"/>
  </g>
</mask>
<clipPath id="clip4">
  <rect x="0" y="0" width="100" height="166"/>
</clipPath>
<g id="surface14" clip-path="url(#clip4)">
<path style=" stroke:none;fill-rule:evenodd;fill:rgb(76.470588%,2.352941%,3.137255%);fill-opacity:1;" d="M 22.269531 54.945312 C 28.976562 58.8125 35.683594 62.679688 42.390625 66.550781 C 43.234375 67.957031 44.347656 69.105469 45.730469 69.996094 C 46.269531 70.339844 46.828125 70.652344 47.410156 70.925781 C 47.109375 70.972656 46.800781 71.007812 46.488281 71.023438 C 38.289062 66.285156 30.082031 61.550781 21.871094 56.820312 C 21.953125 56.183594 22.089844 55.558594 22.269531 54.945312 Z M 22.269531 54.945312 "/>
</g>
<mask id="mask4">
  <g filter="url(#alpha)">
<rect x="0" y="0" width="100" height="166" style="fill:rgb(0%,0%,0%);fill-opacity:0.996078;stroke:none;"/>
  </g>
</mask>
<clipPath id="clip5">
  <rect x="0" y="0" width="100" height="166"/>
</clipPath>
<g id="surface17" clip-path="url(#clip5)">
<path style=" stroke:none;fill-rule:evenodd;fill:rgb(82.352941%,3.921569%,5.098039%);fill-opacity:1;" d="M -0.0117188 79.59375 C 3.300781 85.308594 6.609375 91.03125 9.910156 96.753906 C 7.789062 95.636719 5.957031 94.152344 4.421875 92.296875 C 1.738281 89.011719 0.261719 85.246094 -0.0117188 80.992188 C -0.0117188 80.527344 -0.0117188 80.058594 -0.0117188 79.59375 Z M -0.0117188 79.59375 "/>
</g>
<mask id="mask5">
  <g filter="url(#alpha)">
<rect x="0" y="0" width="100" height="166" style="fill:rgb(0%,0%,0%);fill-opacity:0.996078;stroke:none;"/>
  </g>
</mask>
<clipPath id="clip6">
  <rect x="0" y="0" width="100" height="166"/>
</clipPath>
<g id="surface20" clip-path="url(#clip6)">
<path style=" stroke:none;fill-rule:evenodd;fill:rgb(99.607843%,9.019608%,10.980392%);fill-opacity:1;" d="M 54.851562 113.753906 C 60.757812 117.15625 66.664062 120.558594 72.570312 123.960938 C 70.683594 125.722656 68.769531 127.449219 66.828125 129.144531 C 62.375 132.992188 57.808594 136.691406 53.128906 140.25 C 45.597656 145.953125 37.851562 151.355469 29.890625 156.453125 C 24.722656 159.773438 19.460938 162.953125 14.109375 165.988281 C 14.097656 165.988281 14.082031 165.988281 14.070312 165.988281 C 17.773438 162.148438 21.425781 158.257812 25.019531 154.324219 C 29.09375 149.832031 33.046875 145.242188 36.878906 140.5625 C 39.496094 137.328125 42.03125 134.03125 44.480469 130.671875 C 46.636719 127.683594 48.683594 124.621094 50.621094 121.484375 C 52.152344 118.984375 53.5625 116.40625 54.851562 113.753906 Z M 54.851562 113.753906 "/>
</g>
</defs>
<g id="surface1">
<use xlink:href="#surface5" mask="url(#mask0)"/>
<use xlink:href="#surface8" mask="url(#mask1)"/>
<use xlink:href="#surface11" mask="url(#mask2)"/>
<path style=" stroke:none;fill-rule:evenodd;fill:rgb(93.72549%,7.45098%,9.019608%);fill-opacity:1;" d="M 37.328125 34.867188 C 41.171875 37.097656 45.019531 39.320312 48.871094 41.539062 C 48.441406 42.230469 48.007812 42.914062 47.570312 43.597656 C 43.484375 41.230469 39.390625 38.875 35.289062 36.527344 C 35.464844 36.347656 35.636719 36.167969 35.808594 35.988281 C 36.308594 35.605469 36.816406 35.230469 37.328125 34.867188 Z M 37.328125 34.867188 "/>
<path style=" stroke:none;fill-rule:evenodd;fill:rgb(99.607843%,9.019608%,10.980392%);fill-opacity:1;" d="M 35.808594 35.988281 C 35.636719 36.167969 35.464844 36.347656 35.289062 36.527344 C 35.210938 36.59375 35.136719 36.664062 35.070312 36.746094 C 34.71875 37.089844 34.367188 37.433594 34.019531 37.785156 C 33.632812 38.175781 33.253906 38.574219 32.890625 38.984375 C 31.988281 39.917969 31.113281 40.875 30.269531 41.859375 C 30.238281 41.898438 30.203125 41.941406 30.171875 41.980469 C 29.460938 42.789062 28.78125 43.621094 28.128906 44.476562 C 27.929688 44.714844 27.738281 44.964844 27.550781 45.214844 C 27.0625 45.863281 26.589844 46.523438 26.128906 47.191406 C 25.535156 48.070312 24.976562 48.96875 24.449219 49.890625 C 24.421875 49.9375 24.398438 49.984375 24.371094 50.03125 C 23.71875 51.191406 23.15625 52.398438 22.691406 53.644531 C 22.53125 54.070312 22.390625 54.503906 22.269531 54.945312 C 22.089844 55.558594 21.953125 56.183594 21.871094 56.820312 C 21.71875 57.734375 21.691406 58.652344 21.789062 59.578125 C 21.820312 59.984375 21.886719 60.386719 21.988281 60.777344 C 22.320312 62.167969 22.9375 63.414062 23.839844 64.511719 C 24.871094 65.707031 26.066406 66.695312 27.429688 67.480469 C 29.199219 68.472656 31.058594 69.25 33.011719 69.816406 C 35.25 70.476562 37.539062 70.890625 39.871094 71.0625 C 40.535156 71.125 41.203125 71.160156 41.871094 71.164062 C 43.414062 71.203125 44.953125 71.15625 46.488281 71.023438 C 46.800781 71.007812 47.109375 70.972656 47.410156 70.925781 C 49.378906 70.734375 51.339844 70.464844 53.289062 70.117188 C 56.355469 69.550781 59.414062 68.964844 62.46875 68.359375 C 64.671875 67.933594 66.886719 67.574219 69.109375 67.277344 C 72.457031 66.824219 75.816406 66.664062 79.191406 66.800781 C 81.078125 66.894531 82.960938 67.089844 84.828125 67.378906 C 88.136719 68.019531 91.042969 69.445312 93.550781 71.652344 C 97.03125 74.800781 99.128906 78.703125 99.839844 83.371094 C 99.90625 83.882812 99.957031 84.398438 99.988281 84.90625 C 99.988281 85.472656 99.988281 86.039062 99.988281 86.605469 C 99.832031 89.191406 99.179688 91.648438 98.039062 93.976562 C 97.292969 95.480469 96.46875 96.933594 95.558594 98.332031 C 93.949219 100.761719 92.222656 103.105469 90.378906 105.363281 C 86.066406 110.582031 81.445312 115.539062 76.511719 120.234375 C 76.40625 120.328125 76.300781 120.417969 76.191406 120.503906 C 76.34375 120.320312 76.496094 120.132812 76.648438 119.945312 C 76.703125 119.878906 76.757812 119.8125 76.808594 119.746094 C 77.347656 119.089844 77.839844 118.40625 78.289062 117.6875 C 78.871094 116.820312 79.390625 115.917969 79.851562 114.972656 C 79.871094 114.929688 79.890625 114.890625 79.910156 114.851562 C 80.300781 114.058594 80.648438 113.246094 80.949219 112.414062 C 81.035156 112.175781 81.125 111.933594 81.210938 111.695312 C 81.414062 111.035156 81.59375 110.371094 81.75 109.699219 C 81.960938 108.78125 82.101562 107.847656 82.171875 106.902344 C 82.175781 106.839844 82.179688 106.78125 82.191406 106.722656 C 82.277344 105.386719 82.183594 104.070312 81.910156 102.765625 C 81.820312 102.257812 81.6875 101.765625 81.511719 101.289062 C 81.242188 100.460938 80.890625 99.675781 80.449219 98.929688 C 78.980469 96.457031 76.949219 94.59375 74.351562 93.347656 C 72.726562 92.632812 71.035156 92.179688 69.269531 91.988281 C 68.929688 91.941406 68.589844 91.910156 68.25 91.898438 C 67.335938 91.824219 66.414062 91.792969 65.488281 91.800781 C 64.640625 91.808594 63.796875 91.84375 62.949219 91.898438 C 61.101562 92.027344 59.261719 92.21875 57.429688 92.480469 C 57.355469 92.480469 57.28125 92.488281 57.210938 92.5 C 56.269531 92.621094 55.339844 92.761719 54.410156 92.917969 C 51.28125 93.414062 48.167969 93.996094 45.070312 94.664062 C 42.808594 95.148438 40.550781 95.632812 38.289062 96.113281 C 30.246094 82.207031 22.203125 68.296875 14.171875 54.382812 C 14.355469 54.175781 14.546875 53.96875 14.738281 53.765625 C 17.742188 50.691406 20.871094 47.773438 24.128906 45.003906 C 27.695312 41.976562 31.382812 39.105469 35.191406 36.394531 C 35.394531 36.253906 35.601562 36.117188 35.808594 35.988281 Z M 35.808594 35.988281 "/>
<path style=" stroke:none;fill-rule:evenodd;fill:rgb(92.54902%,7.45098%,8.627451%);fill-opacity:1;" d="M 35.289062 36.527344 C 39.390625 38.875 43.484375 41.230469 47.570312 43.597656 C 47.53125 43.695312 47.476562 43.78125 47.410156 43.855469 C 43.304688 41.472656 39.191406 39.101562 35.070312 36.746094 C 35.136719 36.664062 35.210938 36.59375 35.289062 36.527344 Z M 35.289062 36.527344 "/>
<path style=" stroke:none;fill-rule:evenodd;fill:rgb(91.764706%,6.666667%,8.235294%);fill-opacity:1;" d="M 35.070312 36.746094 C 39.191406 39.101562 43.304688 41.472656 47.410156 43.855469 C 46.894531 44.730469 46.386719 45.609375 45.890625 46.492188 C 41.5625 43.980469 37.230469 41.476562 32.890625 38.984375 C 33.253906 38.574219 33.632812 38.175781 34.019531 37.785156 C 34.367188 37.433594 34.71875 37.089844 35.070312 36.746094 Z M 35.070312 36.746094 "/>
<path style=" stroke:none;fill-rule:evenodd;fill:rgb(89.019608%,5.882353%,7.45098%);fill-opacity:1;" d="M 32.890625 38.984375 C 37.230469 41.476562 41.5625 43.980469 45.890625 46.492188 C 45.285156 47.605469 44.703125 48.730469 44.148438 49.871094 C 39.53125 47.191406 34.902344 44.519531 30.269531 41.859375 C 31.113281 40.875 31.988281 39.917969 32.890625 38.984375 Z M 32.890625 38.984375 "/>
<path style=" stroke:none;fill-rule:evenodd;fill:rgb(87.843137%,5.882353%,7.45098%);fill-opacity:1;" d="M 30.269531 41.859375 C 34.902344 44.519531 39.53125 47.191406 44.148438 49.871094 C 44.140625 49.921875 44.121094 49.96875 44.089844 50.007812 C 39.457031 47.324219 34.816406 44.644531 30.171875 41.980469 C 30.203125 41.941406 30.238281 41.898438 30.269531 41.859375 Z M 30.269531 41.859375 "/>
<path style=" stroke:none;fill-rule:evenodd;fill:rgb(86.666667%,5.098039%,6.666667%);fill-opacity:1;" d="M 30.171875 41.980469 C 34.816406 44.644531 39.457031 47.324219 44.089844 50.007812 C 43.640625 50.980469 43.222656 51.957031 42.828125 52.945312 C 37.925781 50.128906 33.027344 47.304688 28.128906 44.476562 C 28.78125 43.621094 29.460938 42.789062 30.171875 41.980469 Z M 30.171875 41.980469 "/>
<path style=" stroke:none;fill-rule:evenodd;fill:rgb(85.098039%,5.098039%,6.27451%);fill-opacity:1;" d="M 28.128906 44.476562 C 33.027344 47.304688 37.925781 50.128906 42.828125 52.945312 C 42.734375 53.246094 42.628906 53.539062 42.511719 53.824219 C 37.558594 50.964844 32.605469 48.105469 27.648438 45.246094 C 27.621094 45.226562 27.585938 45.214844 27.550781 45.214844 C 27.738281 44.964844 27.929688 44.714844 28.128906 44.476562 Z M 28.128906 44.476562 "/>
<path style=" stroke:none;fill-rule:evenodd;fill:rgb(83.921569%,4.313725%,5.882353%);fill-opacity:1;" d="M 27.550781 45.214844 C 27.585938 45.214844 27.621094 45.226562 27.648438 45.246094 C 32.605469 48.105469 37.558594 50.964844 42.511719 53.824219 C 42.238281 54.609375 41.996094 55.398438 41.789062 56.203125 C 36.574219 53.195312 31.351562 50.191406 26.128906 47.191406 C 26.589844 46.523438 27.0625 45.863281 27.550781 45.214844 Z M 27.550781 45.214844 "/>
<path style=" stroke:none;fill-rule:evenodd;fill:rgb(81.960784%,3.921569%,5.098039%);fill-opacity:1;" d="M 26.128906 47.191406 C 31.351562 50.191406 36.574219 53.195312 41.789062 56.203125 C 41.488281 57.289062 41.28125 58.394531 41.171875 59.519531 C 35.589844 56.320312 30.015625 53.109375 24.449219 49.890625 C 24.976562 48.96875 25.535156 48.070312 26.128906 47.191406 Z M 26.128906 47.191406 "/>
<path style=" stroke:none;fill-rule:evenodd;fill:rgb(81.176471%,3.529412%,4.705882%);fill-opacity:1;" d="M 24.449219 49.890625 C 30.015625 53.109375 35.589844 56.320312 41.171875 59.519531 C 41.152344 59.574219 41.144531 59.636719 41.148438 59.699219 C 35.558594 56.46875 29.964844 53.246094 24.371094 50.03125 C 24.398438 49.984375 24.421875 49.9375 24.449219 49.890625 Z M 24.449219 49.890625 "/>
<path style=" stroke:none;fill-rule:evenodd;fill:rgb(79.215686%,3.137255%,4.313725%);fill-opacity:1;" d="M 24.371094 50.03125 C 29.964844 53.246094 35.558594 56.46875 41.148438 59.699219 C 40.976562 61.304688 41.097656 62.890625 41.511719 64.453125 C 35.246094 60.847656 28.984375 57.238281 22.71875 53.625 C 22.710938 53.636719 22.703125 53.644531 22.691406 53.644531 C 23.15625 52.398438 23.71875 51.191406 24.371094 50.03125 Z M 24.371094 50.03125 "/>
<path style=" stroke:none;fill-rule:evenodd;fill:rgb(77.647059%,2.745098%,3.529412%);fill-opacity:1;" d="M 41.511719 64.453125 C 41.730469 65.179688 42.023438 65.878906 42.390625 66.550781 C 35.683594 62.679688 28.976562 58.8125 22.269531 54.945312 C 22.390625 54.503906 22.53125 54.070312 22.691406 53.644531 C 22.703125 53.644531 22.710938 53.636719 22.71875 53.625 C 28.984375 57.238281 35.246094 60.847656 41.511719 64.453125 Z M 41.511719 64.453125 "/>
<path style=" stroke:none;fill-rule:evenodd;fill:rgb(96.470588%,8.235294%,10.196078%);fill-opacity:1;" d="M 14.171875 54.382812 C 22.203125 68.296875 30.246094 82.207031 38.289062 96.113281 C 36.898438 96.414062 35.503906 96.707031 34.109375 96.992188 C 26.511719 83.835938 18.910156 70.675781 11.308594 57.519531 C 12.226562 56.445312 13.179688 55.398438 14.171875 54.382812 Z M 14.171875 54.382812 "/>
<use xlink:href="#surface14" mask="url(#mask3)"/>
<path style=" stroke:none;fill-rule:evenodd;fill:rgb(74.901961%,1.568627%,2.745098%);fill-opacity:1;" d="M 21.871094 56.820312 C 30.082031 61.550781 38.289062 66.285156 46.488281 71.023438 C 44.953125 71.15625 43.414062 71.203125 41.871094 71.164062 C 35.183594 67.292969 28.488281 63.433594 21.789062 59.578125 C 21.691406 58.652344 21.71875 57.734375 21.871094 56.820312 Z M 21.871094 56.820312 "/>
<path style=" stroke:none;fill-rule:evenodd;fill:rgb(94.901961%,7.843137%,9.803922%);fill-opacity:1;" d="M 11.308594 57.519531 C 18.910156 70.675781 26.511719 83.835938 34.109375 96.992188 C 33.777344 97.058594 33.441406 97.125 33.109375 97.191406 C 25.621094 84.226562 18.128906 71.261719 10.628906 58.300781 C 10.84375 58.027344 11.070312 57.769531 11.308594 57.519531 Z M 11.308594 57.519531 "/>
<path style=" stroke:none;fill-rule:evenodd;fill:rgb(93.72549%,7.45098%,9.019608%);fill-opacity:1;" d="M 10.628906 58.300781 C 18.128906 71.261719 25.621094 84.226562 33.109375 97.191406 C 32.046875 97.410156 30.980469 97.617188 29.910156 97.8125 C 22.789062 85.492188 15.671875 73.175781 8.550781 60.855469 C 9.214844 59.980469 9.90625 59.128906 10.628906 58.300781 Z M 10.628906 58.300781 "/>
<path style=" stroke:none;fill-rule:evenodd;fill:rgb(73.72549%,1.568627%,2.352941%);fill-opacity:1;" d="M 21.789062 59.578125 C 28.488281 63.433594 35.183594 67.292969 41.871094 71.164062 C 41.203125 71.160156 40.535156 71.125 39.871094 71.0625 C 33.921875 67.625 27.96875 64.1875 22.011719 60.757812 C 21.996094 60.757812 21.992188 60.765625 21.988281 60.777344 C 21.886719 60.386719 21.820312 59.984375 21.789062 59.578125 Z M 21.789062 59.578125 "/>
<path style=" stroke:none;fill-rule:evenodd;fill:rgb(72.54902%,0.784314%,1.960784%);fill-opacity:1;" d="M 39.871094 71.0625 C 37.539062 70.890625 35.25 70.476562 33.011719 69.816406 C 31.058594 69.25 29.199219 68.472656 27.429688 67.480469 C 26.066406 66.695312 24.871094 65.707031 23.839844 64.511719 C 22.9375 63.414062 22.320312 62.167969 21.988281 60.777344 C 21.992188 60.765625 21.996094 60.757812 22.011719 60.757812 C 27.96875 64.1875 33.921875 67.625 39.871094 71.0625 Z M 39.871094 71.0625 "/>
<path style=" stroke:none;fill-rule:evenodd;fill:rgb(92.54902%,7.45098%,8.627451%);fill-opacity:1;" d="M 8.550781 60.855469 C 15.671875 73.175781 22.789062 85.492188 29.910156 97.8125 C 29.777344 97.839844 29.644531 97.867188 29.511719 97.890625 C 22.4375 85.652344 15.363281 73.414062 8.289062 61.175781 C 8.367188 61.0625 8.453125 60.957031 8.550781 60.855469 Z M 8.550781 60.855469 "/>
<path style=" stroke:none;fill-rule:evenodd;fill:rgb(91.764706%,6.666667%,8.235294%);fill-opacity:1;" d="M 8.289062 61.175781 C 15.363281 73.414062 22.4375 85.652344 29.511719 97.890625 C 28.226562 98.140625 26.941406 98.359375 25.648438 98.550781 C 19.085938 87.171875 12.511719 75.796875 5.929688 64.433594 C 6.683594 63.320312 7.46875 62.234375 8.289062 61.175781 Z M 8.289062 61.175781 "/>
<path style=" stroke:none;fill-rule:evenodd;fill:rgb(89.411765%,5.882353%,7.45098%);fill-opacity:1;" d="M 5.929688 64.433594 C 12.511719 75.796875 19.085938 87.171875 25.648438 98.550781 C 23.960938 98.804688 22.261719 98.949219 20.550781 98.992188 C 14.773438 88.980469 8.996094 78.972656 3.210938 68.96875 C 4.03125 67.398438 4.9375 65.886719 5.929688 64.433594 Z M 5.929688 64.433594 "/>
<path style=" stroke:none;fill-rule:evenodd;fill:rgb(87.45098%,5.882353%,7.058824%);fill-opacity:1;" d="M 3.210938 68.96875 C 8.996094 78.972656 14.773438 88.980469 20.550781 98.992188 C 20.476562 98.992188 20.402344 98.992188 20.328125 98.992188 C 14.59375 89.046875 8.855469 79.105469 3.109375 69.167969 C 3.132812 69.09375 3.167969 69.027344 3.210938 68.96875 Z M 3.210938 68.96875 "/>
<path style=" stroke:none;fill-rule:evenodd;fill:rgb(86.666667%,5.098039%,6.666667%);fill-opacity:1;" d="M 3.109375 69.167969 C 8.855469 79.105469 14.59375 89.046875 20.328125 98.992188 C 18.773438 99.011719 17.226562 98.898438 15.691406 98.652344 C 10.859375 90.296875 6.03125 81.941406 1.210938 73.582031 C 1.726562 72.058594 2.363281 70.589844 3.109375 69.167969 Z M 3.109375 69.167969 "/>
<path style=" stroke:none;fill-rule:evenodd;fill:rgb(85.098039%,5.098039%,6.27451%);fill-opacity:1;" d="M 1.210938 73.582031 C 6.03125 81.941406 10.859375 90.296875 15.691406 98.652344 C 15.179688 98.570312 14.671875 98.472656 14.171875 98.351562 C 9.695312 90.589844 5.214844 82.835938 0.730469 75.078125 C 0.875 74.574219 1.035156 74.074219 1.210938 73.582031 Z M 1.210938 73.582031 "/>
<path style=" stroke:none;fill-rule:evenodd;fill:rgb(83.921569%,4.313725%,5.882353%);fill-opacity:1;" d="M 0.730469 75.078125 C 5.214844 82.835938 9.695312 90.589844 14.171875 98.351562 C 12.683594 97.992188 11.261719 97.457031 9.910156 96.753906 C 6.609375 91.03125 3.300781 85.308594 -0.0117188 79.59375 C -0.0117188 79.488281 -0.0117188 79.382812 -0.0117188 79.273438 C 0.0625 77.847656 0.3125 76.449219 0.730469 75.078125 Z M 0.730469 75.078125 "/>
<use xlink:href="#surface17" mask="url(#mask4)"/>
<path style=" stroke:none;fill-rule:evenodd;fill:rgb(76.470588%,2.352941%,3.137255%);fill-opacity:1;" d="M 65.488281 91.800781 C 66.414062 91.792969 67.335938 91.824219 68.25 91.898438 C 72.296875 94.253906 76.359375 96.601562 80.441406 98.949219 C 80.449219 98.945312 80.453125 98.941406 80.449219 98.929688 C 80.890625 99.675781 81.242188 100.460938 81.511719 101.289062 C 76.03125 98.144531 70.558594 94.992188 65.089844 91.828125 C 65.226562 91.824219 65.359375 91.816406 65.488281 91.800781 Z M 65.488281 91.800781 "/>
<path style=" stroke:none;fill-rule:evenodd;fill:rgb(77.647059%,2.745098%,3.529412%);fill-opacity:1;" d="M 65.488281 91.800781 C 65.359375 91.816406 65.226562 91.824219 65.089844 91.828125 C 70.558594 94.992188 76.03125 98.144531 81.511719 101.289062 C 81.6875 101.765625 81.820312 102.257812 81.910156 102.765625 C 81.914062 102.789062 81.90625 102.808594 81.890625 102.824219 C 75.570312 99.1875 69.257812 95.546875 62.949219 91.898438 C 63.796875 91.84375 64.640625 91.808594 65.488281 91.800781 Z M 65.488281 91.800781 "/>
<path style=" stroke:none;fill-rule:evenodd;fill:rgb(79.607843%,3.137255%,4.313725%);fill-opacity:1;" d="M 62.949219 91.898438 C 69.257812 95.546875 75.570312 99.1875 81.890625 102.824219 C 81.90625 102.808594 81.914062 102.789062 81.910156 102.765625 C 82.183594 104.070312 82.277344 105.386719 82.191406 106.722656 C 82.175781 106.726562 82.164062 106.734375 82.148438 106.742188 C 73.902344 101.992188 65.664062 97.238281 57.429688 92.480469 C 59.261719 92.21875 61.101562 92.027344 62.949219 91.898438 Z M 62.949219 91.898438 "/>
<path style=" stroke:none;fill-rule:evenodd;fill:rgb(75.294118%,1.568627%,2.745098%);fill-opacity:1;" d="M 68.25 91.898438 C 68.589844 91.910156 68.929688 91.941406 69.269531 91.988281 C 71.035156 92.179688 72.726562 92.632812 74.351562 93.347656 C 76.949219 94.59375 78.980469 96.457031 80.449219 98.929688 C 80.453125 98.941406 80.449219 98.945312 80.441406 98.949219 C 76.359375 96.601562 72.296875 94.253906 68.25 91.898438 Z M 68.25 91.898438 "/>
<path style=" stroke:none;fill-rule:evenodd;fill:rgb(81.176471%,3.529412%,4.705882%);fill-opacity:1;" d="M 57.429688 92.480469 C 65.664062 97.238281 73.902344 101.992188 82.148438 106.742188 C 82.164062 106.734375 82.175781 106.726562 82.191406 106.722656 C 82.179688 106.78125 82.175781 106.839844 82.171875 106.902344 C 73.847656 102.101562 65.527344 97.300781 57.210938 92.5 C 57.28125 92.488281 57.355469 92.480469 57.429688 92.480469 Z M 57.429688 92.480469 "/>
<path style=" stroke:none;fill-rule:evenodd;fill:rgb(81.960784%,3.921569%,5.098039%);fill-opacity:1;" d="M 57.210938 92.5 C 65.527344 97.300781 73.847656 102.101562 82.171875 106.902344 C 82.101562 107.847656 81.960938 108.78125 81.75 109.699219 C 73.828125 105.125 65.898438 100.558594 57.96875 95.996094 C 57.609375 95.144531 57.089844 94.410156 56.410156 93.785156 C 55.964844 93.394531 55.449219 93.121094 54.871094 92.96875 C 54.71875 92.9375 54.566406 92.921875 54.410156 92.917969 C 55.339844 92.761719 56.269531 92.621094 57.210938 92.5 Z M 57.210938 92.5 "/>
<path style=" stroke:none;fill-rule:evenodd;fill:rgb(83.921569%,4.313725%,5.882353%);fill-opacity:1;" d="M 57.96875 95.996094 C 65.898438 100.558594 73.828125 105.125 81.75 109.699219 C 81.59375 110.371094 81.414062 111.035156 81.210938 111.695312 C 73.691406 107.367188 66.171875 103.039062 58.648438 98.710938 C 58.546875 97.773438 58.320312 96.867188 57.96875 95.996094 Z M 57.96875 95.996094 "/>
<path style=" stroke:none;fill-rule:evenodd;fill:rgb(85.098039%,5.098039%,6.27451%);fill-opacity:1;" d="M 58.648438 98.710938 C 66.171875 103.039062 73.691406 107.367188 81.210938 111.695312 C 81.125 111.933594 81.035156 112.175781 80.949219 112.414062 C 73.535156 108.144531 66.125 103.878906 58.710938 99.609375 C 58.691406 99.308594 58.671875 99.011719 58.648438 98.710938 Z M 58.648438 98.710938 "/>
<path style=" stroke:none;fill-rule:evenodd;fill:rgb(86.666667%,5.098039%,6.666667%);fill-opacity:1;" d="M 58.710938 99.609375 C 66.125 103.878906 73.535156 108.144531 80.949219 112.414062 C 80.648438 113.246094 80.300781 114.058594 79.910156 114.851562 C 72.789062 110.757812 65.671875 106.660156 58.550781 102.566406 C 58.679688 101.585938 58.734375 100.601562 58.710938 99.609375 Z M 58.710938 99.609375 "/>
<path style=" stroke:none;fill-rule:evenodd;fill:rgb(87.843137%,5.882353%,7.45098%);fill-opacity:1;" d="M 58.550781 102.566406 C 65.671875 106.660156 72.789062 110.757812 79.910156 114.851562 C 79.890625 114.890625 79.871094 114.929688 79.851562 114.972656 C 72.742188 110.878906 65.636719 106.78125 58.53125 102.6875 C 58.527344 102.644531 58.53125 102.605469 58.550781 102.566406 Z M 58.550781 102.566406 "/>
<path style=" stroke:none;fill-rule:evenodd;fill:rgb(89.019608%,5.882353%,7.45098%);fill-opacity:1;" d="M 58.53125 102.6875 C 65.636719 106.78125 72.742188 110.878906 79.851562 114.972656 C 79.390625 115.917969 78.871094 116.820312 78.289062 117.6875 C 71.476562 113.765625 64.664062 109.84375 57.851562 105.921875 C 58.140625 104.855469 58.367188 103.777344 58.53125 102.6875 Z M 58.53125 102.6875 "/>
<path style=" stroke:none;fill-rule:evenodd;fill:rgb(91.764706%,6.666667%,8.235294%);fill-opacity:1;" d="M 57.851562 105.921875 C 64.664062 109.84375 71.476562 113.765625 78.289062 117.6875 C 77.839844 118.40625 77.347656 119.089844 76.808594 119.746094 C 70.238281 115.957031 63.664062 112.167969 57.089844 108.378906 C 57.367188 107.566406 57.621094 106.75 57.851562 105.921875 Z M 57.851562 105.921875 "/>
<path style=" stroke:none;fill-rule:evenodd;fill:rgb(92.941176%,7.45098%,9.019608%);fill-opacity:1;" d="M 57.089844 108.378906 C 63.664062 112.167969 70.238281 115.957031 76.808594 119.746094 C 76.757812 119.8125 76.703125 119.878906 76.648438 119.945312 C 70.101562 116.171875 63.554688 112.394531 57.011719 108.617188 C 57.023438 108.535156 57.050781 108.453125 57.089844 108.378906 Z M 57.089844 108.378906 "/>
<path style=" stroke:none;fill-rule:evenodd;fill:rgb(93.72549%,7.45098%,9.019608%);fill-opacity:1;" d="M 57.011719 108.617188 C 63.554688 112.394531 70.101562 116.171875 76.648438 119.945312 C 76.496094 120.132812 76.34375 120.320312 76.191406 120.503906 C 75.871094 120.816406 75.550781 121.128906 75.230469 121.445312 C 68.914062 117.804688 62.597656 114.164062 56.289062 110.515625 C 56.53125 109.882812 56.769531 109.25 57.011719 108.617188 Z M 57.011719 108.617188 "/>
<path style=" stroke:none;fill-rule:evenodd;fill:rgb(94.901961%,7.843137%,9.803922%);fill-opacity:1;" d="M 56.289062 110.515625 C 62.597656 114.164062 68.914062 117.804688 75.230469 121.445312 C 75.042969 121.621094 74.855469 121.800781 74.671875 121.984375 C 68.445312 118.394531 62.214844 114.804688 55.988281 111.214844 C 56.085938 110.980469 56.183594 110.746094 56.289062 110.515625 Z M 56.289062 110.515625 "/>
<path style=" stroke:none;fill-rule:evenodd;fill:rgb(96.470588%,8.235294%,10.196078%);fill-opacity:1;" d="M 55.988281 111.214844 C 62.214844 114.804688 68.445312 118.394531 74.671875 121.984375 C 73.976562 122.648438 73.277344 123.308594 72.570312 123.960938 C 66.664062 120.558594 60.757812 117.15625 54.851562 113.753906 C 55.246094 112.914062 55.625 112.070312 55.988281 111.214844 Z M 55.988281 111.214844 "/>
<use xlink:href="#surface20" mask="url(#mask5)"/>
</g>
</svg>
